#N canvas 877 23 450 300 12;
#X obj 45 186 purest_json/json-decode;
#X msg 45 62 read json-data/COCO_val2014_000000000192_keypoints.json
;
#X obj 45 93 purest_json/json-encode;
#X obj 45 210 print decoded_values;
#X obj 235 179 print JSON_string;
#X obj 45 117 t a a;
#X connect 0 0 3 0;
#X connect 1 0 2 0;
#X connect 2 0 5 0;
#X connect 5 0 0 0;
#X connect 5 1 4 0;
